FILE "King of Fighters '97, The (Japan) (En,Ja) (Track 01).bin" BINARY
  TRACK 01 MODE1/2352
    INDEX 01 00:00:00
    INDEX 02 00:04:00
    INDEX 03 00:08:00
    INDEX 04 00:12:00
    INDEX 05 00:16:00
    INDEX 06 00:20:00
    INDEX 07 00:24:00
    INDEX 08 00:28:00
    INDEX 09 00:32:00
    INDEX 10 00:36:00
    INDEX 11 00:40:00
    INDEX 12 00:44:00
    INDEX 13 00:48:00
    INDEX 14 00:52:00
    INDEX 15 00:56:00
    INDEX 16 01:00:00
    INDEX 17 01:04:00
    INDEX 18 01:08:00
    INDEX 19 01:12:00
    INDEX 20 01:16:00
    INDEX 21 01:20:00
    INDEX 22 01:24:00
    INDEX 23 01:28:00
    INDEX 24 01:32:00
    INDEX 25 01:36:00
    INDEX 26 01:40:00
    INDEX 27 01:44:00
    INDEX 28 01:48:00
    INDEX 29 01:52:00
    INDEX 30 01:56:00
    INDEX 31 02:00:00
    INDEX 32 02:04:00
    INDEX 33 02:08:00
    INDEX 34 02:12:00
    INDEX 35 02:16:00
    INDEX 36 02:20:00
    INDEX 37 02:24:00
    INDEX 38 02:28:00
    INDEX 39 02:32:00
    INDEX 40 02:36:00
    INDEX 41 02:40:00
    INDEX 42 02:44:00
    INDEX 43 02:48:00
    INDEX 44 02:52:00
    INDEX 45 02:56:00
    INDEX 46 03:00:00
    INDEX 47 03:04:00
    INDEX 48 03:08:00
    INDEX 49 03:12:00
    INDEX 50 03:16:00
    INDEX 51 03:20:00
    INDEX 52 03:24:00
    INDEX 53 03:28:00
    INDEX 54 03:32:00
    INDEX 55 03:36:00
    INDEX 56 03:40:00
    INDEX 57 03:44:00
    INDEX 58 03:48:00
    INDEX 59 03:52:00
    INDEX 60 03:56:00
    INDEX 61 04:00:00
    INDEX 62 04:04:00
    INDEX 63 04:08:00
    INDEX 64 04:12:00
    INDEX 65 04:16:00
    INDEX 66 04:20:00
    INDEX 67 04:24:00
    INDEX 68 04:28:00
    INDEX 69 04:32:00
    INDEX 70 04:36:00
    INDEX 71 04:40:00
    INDEX 72 04:44:00
    INDEX 73 04:48:00
    INDEX 74 04:52:00
    INDEX 75 04:56:00
    INDEX 76 05:00:00
    INDEX 77 05:04:00
    INDEX 78 05:08:00
    INDEX 79 05:12:00
    INDEX 80 05:16:00
    INDEX 81 05:20:00
    INDEX 82 05:24:00
    INDEX 83 05:28:00
    INDEX 84 05:32:00
    INDEX 85 05:36:00
    INDEX 86 05:40:00
    INDEX 87 05:44:00
    INDEX 88 05:48:00
    INDEX 89 05:52:00
    INDEX 90 05:56:00
    INDEX 91 06:00:00
    INDEX 92 06:04:00
    INDEX 93 06:08:00
    INDEX 94 06:12:00
    INDEX 95 06:16:00
    INDEX 96 06:20:00
    INDEX 97 06:24:00
    INDEX 98 06:28:00
    INDEX 99 06:32:00
FILE "King of Fighters '97, The (Japan) (En,Ja) (Track 02).bin" BINARY
  TRACK 02 AUDIO
    INDEX 00 00:00:00
    INDEX 01 00:03:00
FILE "King of Fighters '97, The (Japan) (En,Ja) (Track 03).bin" BINARY
  TRACK 03 AUDIO
    INDEX 00 00:00:00
    INDEX 01 00:02:00
FILE "King of Fighters '97, The (Japan) (En,Ja) (Track 04).bin" BINARY
  TRACK 04 AUDIO
    INDEX 00 00:00:00
    INDEX 01 00:02:00
FILE "King of Fighters '97, The (Japan) (En,Ja) (Track 05).bin" BINARY
  TRACK 05 AUDIO
    INDEX 00 00:00:00
    INDEX 01 00:02:00
FILE "King of Fighters '97, The (Japan) (En,Ja) (Track 06).bin" BINARY
  TRACK 06 AUDIO
    INDEX 00 00:00:00
    INDEX 01 00:02:00
FILE "King of Fighters '97, The (Japan) (En,Ja) (Track 07).bin" BINARY
  TRACK 07 AUDIO
    INDEX 00 00:00:00
    INDEX 01 00:02:00
FILE "King of Fighters '97, The (Japan) (En,Ja) (Track 08).bin" BINARY
  TRACK 08 AUDIO
    INDEX 00 00:00:00
    INDEX 01 00:02:00
FILE "King of Fighters '97, The (Japan) (En,Ja) (Track 09).bin" BINARY
  TRACK 09 AUDIO
    INDEX 00 00:00:00
    INDEX 01 00:02:00
FILE "King of Fighters '97, The (Japan) (En,Ja) (Track 10).bin" BINARY
  TRACK 10 AUDIO
    INDEX 00 00:00:00
    INDEX 01 00:02:00
FILE "King of Fighters '97, The (Japan) (En,Ja) (Track 11).bin" BINARY
  TRACK 11 AUDIO
    INDEX 00 00:00:00
    INDEX 01 00:02:00
FILE "King of Fighters '97, The (Japan) (En,Ja) (Track 12).bin" BINARY
  TRACK 12 AUDIO
    INDEX 00 00:00:00
    INDEX 01 00:02:00
FILE "King of Fighters '97, The (Japan) (En,Ja) (Track 13).bin" BINARY
  TRACK 13 AUDIO
    INDEX 00 00:00:00
    INDEX 01 00:02:00
FILE "King of Fighters '97, The (Japan) (En,Ja) (Track 14).bin" BINARY
  TRACK 14 AUDIO
    INDEX 00 00:00:00
    INDEX 01 00:02:00
FILE "King of Fighters '97, The (Japan) (En,Ja) (Track 15).bin" BINARY
  TRACK 15 AUDIO
    INDEX 00 00:00:00
    INDEX 01 00:02:00
FILE "King of Fighters '97, The (Japan) (En,Ja) (Track 16).bin" BINARY
  TRACK 16 AUDIO
    INDEX 00 00:00:00
    INDEX 01 00:02:00
FILE "King of Fighters '97, The (Japan) (En,Ja) (Track 17).bin" BINARY
  TRACK 17 AUDIO
    INDEX 00 00:00:00
    INDEX 01 00:02:00
FILE "King of Fighters '97, The (Japan) (En,Ja) (Track 18).bin" BINARY
  TRACK 18 AUDIO
    INDEX 00 00:00:00
    INDEX 01 00:02:00
FILE "King of Fighters '97, The (Japan) (En,Ja) (Track 19).bin" BINARY
  TRACK 19 AUDIO
    INDEX 00 00:00:00
    INDEX 01 00:02:00
FILE "King of Fighters '97, The (Japan) (En,Ja) (Track 20).bin" BINARY
  TRACK 20 AUDIO
    INDEX 00 00:00:00
    INDEX 01 00:02:00
FILE "King of Fighters '97, The (Japan) (En,Ja) (Track 21).bin" BINARY
  TRACK 21 AUDIO
    INDEX 00 00:00:00
    INDEX 01 00:02:00
FILE "King of Fighters '97, The (Japan) (En,Ja) (Track 22).bin" BINARY
  TRACK 22 AUDIO
    INDEX 00 00:00:00
    INDEX 01 00:02:00
FILE "King of Fighters '97, The (Japan) (En,Ja) (Track 23).bin" BINARY
  TRACK 23 AUDIO
    INDEX 00 00:00:00
    INDEX 01 00:02:00
FILE "King of Fighters '97, The (Japan) (En,Ja) (Track 24).bin" BINARY
  TRACK 24 AUDIO
    INDEX 00 00:00:00
    INDEX 01 00:02:00
FILE "King of Fighters '97, The (Japan) (En,Ja) (Track 25).bin" BINARY
  TRACK 25 AUDIO
    INDEX 00 00:00:00
    INDEX 01 00:02:00
FILE "King of Fighters '97, The (Japan) (En,Ja) (Track 26).bin" BINARY
  TRACK 26 AUDIO
    INDEX 00 00:00:00
    INDEX 01 00:02:00
FILE "King of Fighters '97, The (Japan) (En,Ja) (Track 27).bin" BINARY
  TRACK 27 AUDIO
    INDEX 00 00:00:00
    INDEX 01 00:02:00
FILE "King of Fighters '97, The (Japan) (En,Ja) (Track 28).bin" BINARY
  TRACK 28 AUDIO
    INDEX 00 00:00:00
    INDEX 01 00:02:00
FILE "King of Fighters '97, The (Japan) (En,Ja) (Track 29).bin" BINARY
  TRACK 29 AUDIO
    INDEX 00 00:00:00
    INDEX 01 00:02:00
FILE "King of Fighters '97, The (Japan) (En,Ja) (Track 30).bin" BINARY
  TRACK 30 AUDIO
    INDEX 00 00:00:00
    INDEX 01 00:02:00
FILE "King of Fighters '97, The (Japan) (En,Ja) (Track 31).bin" BINARY
  TRACK 31 AUDIO
    INDEX 00 00:00:00
    INDEX 01 00:02:00
FILE "King of Fighters '97, The (Japan) (En,Ja) (Track 32).bin" BINARY
  TRACK 32 AUDIO
    INDEX 00 00:00:00
    INDEX 01 00:02:00
FILE "King of Fighters '97, The (Japan) (En,Ja) (Track 33).bin" BINARY
  TRACK 33 AUDIO
    INDEX 00 00:00:00
    INDEX 01 00:02:00
FILE "King of Fighters '97, The (Japan) (En,Ja) (Track 34).bin" BINARY
  TRACK 34 AUDIO
    INDEX 00 00:00:00
    INDEX 01 00:02:00
FILE "King of Fighters '97, The (Japan) (En,Ja) (Track 35).bin" BINARY
  TRACK 35 AUDIO
    INDEX 00 00:00:00
    INDEX 01 00:02:00
FILE "King of Fighters '97, The (Japan) (En,Ja) (Track 36).bin" BINARY
  TRACK 36 AUDIO
    INDEX 00 00:00:00
    INDEX 01 00:02:00
FILE "King of Fighters '97, The (Japan) (En,Ja) (Track 37).bin" BINARY
  TRACK 37 AUDIO
    INDEX 00 00:00:00
    INDEX 01 00:02:00
FILE "King of Fighters '97, The (Japan) (En,Ja) (Track 38).bin" BINARY
  TRACK 38 AUDIO
    INDEX 00 00:00:00
    INDEX 01 00:02:00
FILE "King of Fighters '97, The (Japan) (En,Ja) (Track 39).bin" BINARY
  TRACK 39 AUDIO
    INDEX 00 00:00:00
    INDEX 01 00:02:00
FILE "King of Fighters '97, The (Japan) (En,Ja) (Track 40).bin" BINARY
  TRACK 40 AUDIO
    INDEX 00 00:00:00
    INDEX 01 00:02:00
FILE "King of Fighters '97, The (Japan) (En,Ja) (Track 41).bin" BINARY
  TRACK 41 AUDIO
    INDEX 00 00:00:00
    INDEX 01 00:02:00
FILE "King of Fighters '97, The (Japan) (En,Ja) (Track 42).bin" BINARY
  TRACK 42 AUDIO
    INDEX 00 00:00:00
    INDEX 01 00:02:00
FILE "King of Fighters '97, The (Japan) (En,Ja) (Track 43).bin" BINARY
  TRACK 43 AUDIO
    INDEX 00 00:00:00
    INDEX 01 00:02:00
FILE "King of Fighters '97, The (Japan) (En,Ja) (Track 44).bin" BINARY
  TRACK 44 AUDIO
    INDEX 00 00:00:00
    INDEX 01 00:02:00
FILE "King of Fighters '97, The (Japan) (En,Ja) (Track 45).bin" BINARY
  TRACK 45 AUDIO
    INDEX 00 00:00:00
    INDEX 01 00:02:00
FILE "King of Fighters '97, The (Japan) (En,Ja) (Track 46).bin" BINARY
  TRACK 46 AUDIO
    INDEX 00 00:00:00
    INDEX 01 00:02:00
